<svg id="visual" viewBox="0 0 900 600" width="900" height="600" xmlns="http://www.w3.org/2000/svg" xmlns:xlink="http://www.w3.org/1999/xlink" version="1.1"><g stroke-width="1" stroke-linejoin="bevel"><path d="M467.6 288.7L441.6 214L428.4 234.7Z" fill="#005729" stroke="#FFFFFF"></path><path d="M441.6 214L426.4 227L428.4 234.7Z" fill="#038e61" stroke="#FFFFFF"></path><path d="M365.2 303.3L411.4 325.3L428.4 234.7Z" fill="#038e61" stroke="#FFFFFF"></path><path d="M428.4 234.7L411.4 325.3L467.6 288.7Z" fill="#015e2f" stroke="#FFFFFF"></path><path d="M574.8 238.7L487.6 144.3L441.6 214Z" fill="#036b3d" stroke="#FFFFFF"></path><path d="M441.6 214L396.4 114.3L426.4 227Z" fill="#04794b" stroke="#FFFFFF"></path><path d="M587.1 366.3L574.8 238.7L467.6 288.7Z" fill="#036b3d" stroke="#FFFFFF"></path><path d="M467.6 288.7L574.8 238.7L441.6 214Z" fill="#015e2f" stroke="#FFFFFF"></path><path d="M443.6 366.3L484.6 360L467.6 288.7Z" fill="#048052" stroke="#FFFFFF"></path><path d="M426.4 227L365.2 303.3L428.4 234.7Z" fill="#005729" stroke="#FFFFFF"></path><path d="M330.2 292.7L365.2 303.3L426.4 227Z" fill="#026436" stroke="#FFFFFF"></path><path d="M410.4 413L443.6 366.3L411.4 325.3Z" fill="#047244" stroke="#FFFFFF"></path><path d="M411.4 325.3L443.6 366.3L467.6 288.7Z" fill="#015e2f" stroke="#FFFFFF"></path><path d="M574.8 238.7L590.8 217L487.6 144.3Z" fill="#038e61" stroke="#FFFFFF"></path><path d="M443.6 366.3L509.8 375.3L484.6 360Z" fill="#04794b" stroke="#FFFFFF"></path><path d="M484.6 360L509.8 375.3L467.6 288.7Z" fill="#026436" stroke="#FFFFFF"></path><path d="M574.8 238.7L666.1 249.7L590.8 217Z" fill="#038e61" stroke="#FFFFFF"></path><path d="M303.2 166.3L330.2 292.7L426.4 227Z" fill="#036b3d" stroke="#FFFFFF"></path><path d="M385.2 423L410.4 413L411.4 325.3Z" fill="#005729" stroke="#FFFFFF"></path><path d="M487.6 144.3L396.4 114.3L441.6 214Z" fill="#047244" stroke="#FFFFFF"></path><path d="M410.4 413L523.8 387L509.8 375.3Z" fill="#009d71" stroke="#FFFFFF"></path><path d="M509.8 375.3L587.1 366.3L467.6 288.7Z" fill="#038e61" stroke="#FFFFFF"></path><path d="M590.8 217L552.8 119.3L487.6 144.3Z" fill="#029669" stroke="#FFFFFF"></path><path d="M487.6 144.3L499.6 96.7L396.4 114.3Z" fill="#047244" stroke="#FFFFFF"></path><path d="M552.8 119.3L499.6 96.7L487.6 144.3Z" fill="#048052" stroke="#FFFFFF"></path><path d="M523.8 387L587.1 366.3L509.8 375.3Z" fill="#048052" stroke="#FFFFFF"></path><path d="M590.8 217L610.1 144.3L552.8 119.3Z" fill="#015e2f" stroke="#FFFFFF"></path><path d="M666.1 220L610.1 144.3L590.8 217Z" fill="#026436" stroke="#FFFFFF"></path><path d="M385.2 423L411.4 325.3L365.2 303.3Z" fill="#015e2f" stroke="#FFFFFF"></path><path d="M443.6 366.3L410.4 413L509.8 375.3Z" fill="#036b3d" stroke="#FFFFFF"></path><path d="M396.4 114.3L312.2 157L426.4 227Z" fill="#04794b" stroke="#FFFFFF"></path><path d="M312.2 157L303.2 166.3L426.4 227Z" fill="#029669" stroke="#FFFFFF"></path><path d="M610.1 144.3L569.8 90.7L552.8 119.3Z" fill="#026436" stroke="#FFFFFF"></path><path d="M552.8 119.3L569.8 90.7L499.6 96.7Z" fill="#047244" stroke="#FFFFFF"></path><path d="M437.4 0L449.4 56.7L507.6 0Z" fill="#009d71" stroke="#FFFFFF"></path><path d="M499.6 96.7L449.4 56.7L396.4 114.3Z" fill="#015e2f" stroke="#FFFFFF"></path><path d="M396.4 114.3L292.9 78.7L312.2 157Z" fill="#047244" stroke="#FFFFFF"></path><path d="M267.9 371.3L385.2 423L365.2 303.3Z" fill="#04794b" stroke="#FFFFFF"></path><path d="M410.4 413L405.4 439.7L523.8 387Z" fill="#009d71" stroke="#FFFFFF"></path><path d="M587.1 366.3L666.1 249.7L574.8 238.7Z" fill="#04875a" stroke="#FFFFFF"></path><path d="M666.1 249.7L666.1 220L590.8 217Z" fill="#036b3d" stroke="#FFFFFF"></path><path d="M449.4 56.7L390.2 63.7L396.4 114.3Z" fill="#009d71" stroke="#FFFFFF"></path><path d="M250.9 174.3L267.9 189L303.2 166.3Z" fill="#009d71" stroke="#FFFFFF"></path><path d="M385.2 423L405.4 439.7L410.4 413Z" fill="#04794b" stroke="#FFFFFF"></path><path d="M642.1 421.7L654.1 408L587.1 366.3Z" fill="#036b3d" stroke="#FFFFFF"></path><path d="M250.9 174.3L303.2 166.3L292.9 78.7Z" fill="#048052" stroke="#FFFFFF"></path><path d="M303.2 166.3L267.9 189L330.2 292.7Z" fill="#047244" stroke="#FFFFFF"></path><path d="M330.2 292.7L267.9 371.3L365.2 303.3Z" fill="#026436" stroke="#FFFFFF"></path><path d="M587.1 366.3L689.3 264.7L666.1 249.7Z" fill="#036b3d" stroke="#FFFFFF"></path><path d="M666.1 249.7L689.3 264.7L666.1 220Z" fill="#029669" stroke="#FFFFFF"></path><path d="M267.9 189L244.9 247.7L330.2 292.7Z" fill="#038e61" stroke="#FFFFFF"></path><path d="M292.9 78.7L303.2 166.3L312.2 157Z" fill="#009d71" stroke="#FFFFFF"></path><path d="M267.9 189L206.7 231L244.9 247.7Z" fill="#015e2f" stroke="#FFFFFF"></path><path d="M244.9 247.7L267.9 371.3L330.2 292.7Z" fill="#048052" stroke="#FFFFFF"></path><path d="M375.2 498.7L414.4 489.3L405.4 439.7Z" fill="#029669" stroke="#FFFFFF"></path><path d="M390.2 63.7L292.9 78.7L396.4 114.3Z" fill="#029669" stroke="#FFFFFF"></path><path d="M642.1 421.7L587.1 366.3L592.8 466.7Z" fill="#005729" stroke="#FFFFFF"></path><path d="M687.3 380L719.3 295.3L689.3 264.7Z" fill="#048052" stroke="#FFFFFF"></path><path d="M592.8 466.7L587.1 366.3L523.8 387Z" fill="#005729" stroke="#FFFFFF"></path><path d="M449.4 56.7L437.4 0L390.2 63.7Z" fill="#04794b" stroke="#FFFFFF"></path><path d="M390.2 63.7L327.2 0L292.9 78.7Z" fill="#04794b" stroke="#FFFFFF"></path><path d="M507.6 0L449.4 56.7L499.6 96.7Z" fill="#036b3d" stroke="#FFFFFF"></path><path d="M375.2 498.7L405.4 439.7L385.2 423Z" fill="#048052" stroke="#FFFFFF"></path><path d="M405.4 439.7L440.6 509.7L523.8 387Z" fill="#04875a" stroke="#FFFFFF"></path><path d="M539.8 0L499.6 96.7L569.8 90.7Z" fill="#048052" stroke="#FFFFFF"></path><path d="M539.8 0L507.6 0L499.6 96.7Z" fill="#009d71" stroke="#FFFFFF"></path><path d="M622.1 41.7L569.8 90.7L610.1 144.3Z" fill="#047244" stroke="#FFFFFF"></path><path d="M715.3 146.3L610.1 144.3L666.1 220Z" fill="#005729" stroke="#FFFFFF"></path><path d="M715.3 146.3L673.3 101.7L610.1 144.3Z" fill="#047244" stroke="#FFFFFF"></path><path d="M520.6 530.3L592.8 466.7L523.8 387Z" fill="#048052" stroke="#FFFFFF"></path><path d="M687.3 380L689.3 264.7L587.1 366.3Z" fill="#04875a" stroke="#FFFFFF"></path><path d="M760.5 190L719.3 162L666.1 220Z" fill="#009d71" stroke="#FFFFFF"></path><path d="M673.3 101.7L622.1 41.7L610.1 144.3Z" fill="#047244" stroke="#FFFFFF"></path><path d="M724.5 399L687.3 380L654.1 408Z" fill="#009d71" stroke="#FFFFFF"></path><path d="M654.1 408L687.3 380L587.1 366.3Z" fill="#026436" stroke="#FFFFFF"></path><path d="M622.1 41.7L539.8 0L569.8 90.7Z" fill="#015e2f" stroke="#FFFFFF"></path><path d="M160.5 134.3L206.7 231L250.9 174.3Z" fill="#015e2f" stroke="#FFFFFF"></path><path d="M250.9 174.3L206.7 231L267.9 189Z" fill="#038e61" stroke="#FFFFFF"></path><path d="M244.9 247.7L192.7 359.3L267.9 371.3Z" fill="#015e2f" stroke="#FFFFFF"></path><path d="M760.5 190L666.1 220L689.3 264.7Z" fill="#029669" stroke="#FFFFFF"></path><path d="M414.4 489.3L440.6 509.7L405.4 439.7Z" fill="#029669" stroke="#FFFFFF"></path><path d="M719.3 162L715.3 146.3L666.1 220Z" fill="#029669" stroke="#FFFFFF"></path><path d="M735.3 0L609.1 0L622.1 41.7Z" fill="#04794b" stroke="#FFFFFF"></path><path d="M282.9 501.7L375.2 498.7L385.2 423Z" fill="#04875a" stroke="#FFFFFF"></path><path d="M414.4 489.3L375.2 498.7L440.6 509.7Z" fill="#038e61" stroke="#FFFFFF"></path><path d="M775.5 345.3L737.5 293.7L719.3 295.3Z" fill="#036b3d" stroke="#FFFFFF"></path><path d="M719.3 295.3L737.5 293.7L689.3 264.7Z" fill="#038e61" stroke="#FFFFFF"></path><path d="M225.7 412L257.9 432L267.9 371.3Z" fill="#029669" stroke="#FFFFFF"></path><path d="M267.9 371.3L257.9 432L385.2 423Z" fill="#015e2f" stroke="#FFFFFF"></path><path d="M735.3 0L622.1 41.7L673.3 101.7Z" fill="#029669" stroke="#FFFFFF"></path><path d="M622.1 41.7L609.1 0L539.8 0Z" fill="#026436" stroke="#FFFFFF"></path><path d="M437.4 0L327.2 0L390.2 63.7Z" fill="#015e2f" stroke="#FFFFFF"></path><path d="M292.9 78.7L234.7 69.7L250.9 174.3Z" fill="#009d71" stroke="#FFFFFF"></path><path d="M505.6 600L520.6 530.3L440.6 509.7Z" fill="#015e2f" stroke="#FFFFFF"></path><path d="M440.6 509.7L520.6 530.3L523.8 387Z" fill="#047244" stroke="#FFFFFF"></path><path d="M281.9 0L234.7 69.7L292.9 78.7Z" fill="#048052" stroke="#FFFFFF"></path><path d="M192.7 359.3L225.7 412L267.9 371.3Z" fill="#048052" stroke="#FFFFFF"></path><path d="M719.3 162L747.5 100.3L715.3 146.3Z" fill="#04875a" stroke="#FFFFFF"></path><path d="M715.3 146.3L747.5 100.3L673.3 101.7Z" fill="#047244" stroke="#FFFFFF"></path><path d="M737.5 293.7L760.5 190L689.3 264.7Z" fill="#04875a" stroke="#FFFFFF"></path><path d="M705.3 502.7L724.5 399L654.1 408Z" fill="#04875a" stroke="#FFFFFF"></path><path d="M687.3 380L775.5 345.3L719.3 295.3Z" fill="#047244" stroke="#FFFFFF"></path><path d="M737.5 293.7L827.8 241L760.5 190Z" fill="#036b3d" stroke="#FFFFFF"></path><path d="M705.3 502.7L654.1 408L642.1 421.7Z" fill="#026436" stroke="#FFFFFF"></path><path d="M624.1 507.3L642.1 421.7L592.8 466.7Z" fill="#029669" stroke="#FFFFFF"></path><path d="M167.7 290.7L192.7 359.3L244.9 247.7Z" fill="#038e61" stroke="#FFFFFF"></path><path d="M520.6 530.3L561.8 533.3L592.8 466.7Z" fill="#047244" stroke="#FFFFFF"></path><path d="M561.8 533.3L624.1 507.3L592.8 466.7Z" fill="#026436" stroke="#FFFFFF"></path><path d="M206.7 231L167.7 290.7L244.9 247.7Z" fill="#048052" stroke="#FFFFFF"></path><path d="M96.5 210L167.7 290.7L206.7 231Z" fill="#036b3d" stroke="#FFFFFF"></path><path d="M327.2 0L281.9 0L292.9 78.7Z" fill="#04794b" stroke="#FFFFFF"></path><path d="M156.5 66.7L197.7 92.3L234.7 69.7Z" fill="#048052" stroke="#FFFFFF"></path><path d="M234.7 69.7L197.7 92.3L250.9 174.3Z" fill="#047244" stroke="#FFFFFF"></path><path d="M760.5 190L747.5 100.3L719.3 162Z" fill="#048052" stroke="#FFFFFF"></path><path d="M282.9 501.7L332.2 529.3L375.2 498.7Z" fill="#048052" stroke="#FFFFFF"></path><path d="M377.2 600L427.4 600L440.6 509.7Z" fill="#036b3d" stroke="#FFFFFF"></path><path d="M520.6 530.3L529.8 600L561.8 533.3Z" fill="#047244" stroke="#FFFFFF"></path><path d="M282.9 501.7L385.2 423L257.9 432Z" fill="#005729" stroke="#FFFFFF"></path><path d="M747.5 100.3L740.5 84.7L673.3 101.7Z" fill="#026436" stroke="#FFFFFF"></path><path d="M204.7 435.7L282.9 501.7L257.9 432Z" fill="#04875a" stroke="#FFFFFF"></path><path d="M834.8 384L775.5 345.3L724.5 399Z" fill="#048052" stroke="#FFFFFF"></path><path d="M724.5 399L775.5 345.3L687.3 380Z" fill="#04875a" stroke="#FFFFFF"></path><path d="M192.7 359.3L204.7 435.7L225.7 412Z" fill="#009d71" stroke="#FFFFFF"></path><path d="M225.7 412L204.7 435.7L257.9 432Z" fill="#005729" stroke="#FFFFFF"></path><path d="M169.5 465.7L204.7 435.7L129.5 441Z" fill="#015e2f" stroke="#FFFFFF"></path><path d="M197.7 92.3L160.5 134.3L250.9 174.3Z" fill="#009d71" stroke="#FFFFFF"></path><path d="M226.7 535.3L277.9 515.3L282.9 501.7Z" fill="#036b3d" stroke="#FFFFFF"></path><path d="M282.9 501.7L277.9 515.3L332.2 529.3Z" fill="#048052" stroke="#FFFFFF"></path><path d="M96.5 210L137.5 308.7L167.7 290.7Z" fill="#036b3d" stroke="#FFFFFF"></path><path d="M167.7 290.7L137.5 308.7L192.7 359.3Z" fill="#026436" stroke="#FFFFFF"></path><path d="M281.9 0L234.7 0L234.7 69.7Z" fill="#04875a" stroke="#FFFFFF"></path><path d="M197.7 92.3L156.5 66.7L160.5 134.3Z" fill="#04794b" stroke="#FFFFFF"></path><path d="M716.3 512.3L705.3 502.7L667.1 600Z" fill="#026436" stroke="#FFFFFF"></path><path d="M624.1 507.3L705.3 502.7L642.1 421.7Z" fill="#005729" stroke="#FFFFFF"></path><path d="M427.4 600L505.6 600L440.6 509.7Z" fill="#005729" stroke="#FFFFFF"></path><path d="M561.8 533.3L667.1 600L624.1 507.3Z" fill="#048052" stroke="#FFFFFF"></path><path d="M440.6 509.7L375.2 498.7L377.2 600Z" fill="#038e61" stroke="#FFFFFF"></path><path d="M377.2 600L375.2 498.7L332.2 529.3Z" fill="#047244" stroke="#FFFFFF"></path><path d="M840.8 276.7L827.8 241L737.5 293.7Z" fill="#047244" stroke="#FFFFFF"></path><path d="M867.8 99.3L792.8 54.7L747.5 100.3Z" fill="#047244" stroke="#FFFFFF"></path><path d="M753.5 0L735.3 0L740.5 84.7Z" fill="#036b3d" stroke="#FFFFFF"></path><path d="M840.8 276.7L737.5 293.7L775.5 345.3Z" fill="#015e2f" stroke="#FFFFFF"></path><path d="M505.6 600L529.8 600L520.6 530.3Z" fill="#026436" stroke="#FFFFFF"></path><path d="M172.5 0L156.5 66.7L234.7 69.7Z" fill="#015e2f" stroke="#FFFFFF"></path><path d="M160.5 134.3L96.5 210L206.7 231Z" fill="#009d71" stroke="#FFFFFF"></path><path d="M792.8 54.7L740.5 84.7L747.5 100.3Z" fill="#038e61" stroke="#FFFFFF"></path><path d="M740.5 84.7L735.3 0L673.3 101.7Z" fill="#048052" stroke="#FFFFFF"></path><path d="M667.1 600L705.3 502.7L624.1 507.3Z" fill="#04794b" stroke="#FFFFFF"></path><path d="M705.3 502.7L778.5 494.7L724.5 399Z" fill="#005729" stroke="#FFFFFF"></path><path d="M296.9 600L377.2 600L332.2 529.3Z" fill="#04875a" stroke="#FFFFFF"></path><path d="M204.7 435.7L226.7 535.3L282.9 501.7Z" fill="#038e61" stroke="#FFFFFF"></path><path d="M277.9 515.3L296.9 600L332.2 529.3Z" fill="#005729" stroke="#FFFFFF"></path><path d="M129.5 441L204.7 435.7L192.7 359.3Z" fill="#009d71" stroke="#FFFFFF"></path><path d="M843.8 366.3L840.8 276.7L775.5 345.3Z" fill="#038e61" stroke="#FFFFFF"></path><path d="M92.2 201L96.5 210L160.5 134.3Z" fill="#04794b" stroke="#FFFFFF"></path><path d="M137.5 308.7L102.5 357.3L192.7 359.3Z" fill="#036b3d" stroke="#FFFFFF"></path><path d="M867.8 99.3L747.5 100.3L760.5 190Z" fill="#047244" stroke="#FFFFFF"></path><path d="M867.8 99.3L760.5 190L827.8 241Z" fill="#047244" stroke="#FFFFFF"></path><path d="M792.8 54.7L753.5 0L740.5 84.7Z" fill="#015e2f" stroke="#FFFFFF"></path><path d="M169.5 465.7L226.7 535.3L204.7 435.7Z" fill="#048052" stroke="#FFFFFF"></path><path d="M81.2 161.3L92.2 201L160.5 134.3Z" fill="#036b3d" stroke="#FFFFFF"></path><path d="M74.2 322.3L102.5 357.3L137.5 308.7Z" fill="#036b3d" stroke="#FFFFFF"></path><path d="M74.2 322.3L137.5 308.7L61.2 257.7Z" fill="#029669" stroke="#FFFFFF"></path><path d="M234.7 0L172.5 0L234.7 69.7Z" fill="#047244" stroke="#FFFFFF"></path><path d="M156.5 66.7L81.2 161.3L160.5 134.3Z" fill="#015e2f" stroke="#FFFFFF"></path><path d="M800.8 464.7L834.8 384L724.5 399Z" fill="#005729" stroke="#FFFFFF"></path><path d="M102.5 357.3L129.5 441L192.7 359.3Z" fill="#029669" stroke="#FFFFFF"></path><path d="M169.5 465.7L111.5 521.3L226.7 535.3Z" fill="#048052" stroke="#FFFFFF"></path><path d="M834.8 384L843.8 366.3L775.5 345.3Z" fill="#009d71" stroke="#FFFFFF"></path><path d="M226.7 535.3L296.9 600L277.9 515.3Z" fill="#047244" stroke="#FFFFFF"></path><path d="M785.5 531.3L778.5 494.7L716.3 512.3Z" fill="#036b3d" stroke="#FFFFFF"></path><path d="M716.3 512.3L778.5 494.7L705.3 502.7Z" fill="#04875a" stroke="#FFFFFF"></path><path d="M900 440L900 347.3L843.8 366.3Z" fill="#029669" stroke="#FFFFFF"></path><path d="M778.5 494.7L800.8 464.7L724.5 399Z" fill="#048052" stroke="#FFFFFF"></path><path d="M88.2 38.7L81.2 161.3L156.5 66.7Z" fill="#048052" stroke="#FFFFFF"></path><path d="M61.2 257.7L137.5 308.7L96.5 210Z" fill="#047244" stroke="#FFFFFF"></path><path d="M61.2 257.7L96.5 210L92.2 201Z" fill="#005729" stroke="#FFFFFF"></path><path d="M102.5 357.3L77.2 469.7L129.5 441Z" fill="#04875a" stroke="#FFFFFF"></path><path d="M529.8 600L667.1 600L561.8 533.3Z" fill="#005729" stroke="#FFFFFF"></path><path d="M0 254.7L61.2 257.7L0 216Z" fill="#048052" stroke="#FFFFFF"></path><path d="M900 224L827.8 241L840.8 276.7Z" fill="#029669" stroke="#FFFFFF"></path><path d="M900 224L867.8 99.3L827.8 241Z" fill="#04794b" stroke="#FFFFFF"></path><path d="M792.8 54.7L848.8 0L753.5 0Z" fill="#029669" stroke="#FFFFFF"></path><path d="M758.5 600L785.5 531.3L716.3 512.3Z" fill="#029669" stroke="#FFFFFF"></path><path d="M778.5 494.7L785.5 531.3L800.8 464.7Z" fill="#047244" stroke="#FFFFFF"></path><path d="M900 440L843.8 366.3L834.8 384Z" fill="#029669" stroke="#FFFFFF"></path><path d="M667.1 600L714.3 600L716.3 512.3Z" fill="#005729" stroke="#FFFFFF"></path><path d="M900 272.7L900 224L840.8 276.7Z" fill="#015e2f" stroke="#FFFFFF"></path><path d="M900 272.7L840.8 276.7L900 347.3Z" fill="#047244" stroke="#FFFFFF"></path><path d="M900 347.3L840.8 276.7L843.8 366.3Z" fill="#04794b" stroke="#FFFFFF"></path><path d="M172.5 0L88.2 38.7L156.5 66.7Z" fill="#026436" stroke="#FFFFFF"></path><path d="M0 216L61.2 257.7L92.2 201Z" fill="#005729" stroke="#FFFFFF"></path><path d="M0 334.3L74.2 322.3L61.2 257.7Z" fill="#029669" stroke="#FFFFFF"></path><path d="M0 334.3L44.2 359L74.2 322.3Z" fill="#015e2f" stroke="#FFFFFF"></path><path d="M74.2 322.3L44.2 359L102.5 357.3Z" fill="#009d71" stroke="#FFFFFF"></path><path d="M129.5 441L111.5 521.3L169.5 465.7Z" fill="#026436" stroke="#FFFFFF"></path><path d="M900 440L834.8 384L800.8 464.7Z" fill="#04794b" stroke="#FFFFFF"></path><path d="M44.2 359L77.2 469.7L102.5 357.3Z" fill="#04875a" stroke="#FFFFFF"></path><path d="M226.7 535.3L179.7 600L296.9 600Z" fill="#047244" stroke="#FFFFFF"></path><path d="M77.2 469.7L111.5 521.3L129.5 441Z" fill="#009d71" stroke="#FFFFFF"></path><path d="M900 90.7L848.8 0L867.8 99.3Z" fill="#04794b" stroke="#FFFFFF"></path><path d="M867.8 99.3L848.8 0L792.8 54.7Z" fill="#048052" stroke="#FFFFFF"></path><path d="M900 224L900 106.3L867.8 99.3Z" fill="#04794b" stroke="#FFFFFF"></path><path d="M714.3 600L758.5 600L716.3 512.3Z" fill="#04875a" stroke="#FFFFFF"></path><path d="M900 509.7L900 440L800.8 464.7Z" fill="#015e2f" stroke="#FFFFFF"></path><path d="M111.5 521.3L179.7 600L226.7 535.3Z" fill="#029669" stroke="#FFFFFF"></path><path d="M900 106.3L900 90.7L867.8 99.3Z" fill="#047244" stroke="#FFFFFF"></path><path d="M172.5 0L77.2 0L88.2 38.7Z" fill="#04794b" stroke="#FFFFFF"></path><path d="M0 216L92.2 201L81.2 161.3Z" fill="#036b3d" stroke="#FFFFFF"></path><path d="M0 216L81.2 161.3L0 101.3Z" fill="#048052" stroke="#FFFFFF"></path><path d="M44.2 359L0 422L77.2 469.7Z" fill="#029669" stroke="#FFFFFF"></path><path d="M0 101.3L81.2 161.3L88.2 38.7Z" fill="#038e61" stroke="#FFFFFF"></path><path d="M842.8 558.3L800.8 464.7L785.5 531.3Z" fill="#047244" stroke="#FFFFFF"></path><path d="M0 254.7L0 334.3L61.2 257.7Z" fill="#036b3d" stroke="#FFFFFF"></path><path d="M823.8 600L842.8 558.3L785.5 531.3Z" fill="#009d71" stroke="#FFFFFF"></path><path d="M0 44.7L0 101.3L88.2 38.7Z" fill="#047244" stroke="#FFFFFF"></path><path d="M900 90.7L900 0L848.8 0Z" fill="#036b3d" stroke="#FFFFFF"></path><path d="M758.5 600L823.8 600L785.5 531.3Z" fill="#038e61" stroke="#FFFFFF"></path><path d="M842.8 558.3L900 509.7L800.8 464.7Z" fill="#04875a" stroke="#FFFFFF"></path><path d="M43.2 548.3L114.5 600L111.5 521.3Z" fill="#005729" stroke="#FFFFFF"></path><path d="M111.5 521.3L114.5 600L179.7 600Z" fill="#005729" stroke="#FFFFFF"></path><path d="M43.2 548.3L111.5 521.3L77.2 469.7Z" fill="#047244" stroke="#FFFFFF"></path><path d="M0 334.3L0 422L44.2 359Z" fill="#038e61" stroke="#FFFFFF"></path><path d="M900 537.3L900 509.7L842.8 558.3Z" fill="#005729" stroke="#FFFFFF"></path><path d="M77.2 0L0 44.7L88.2 38.7Z" fill="#04875a" stroke="#FFFFFF"></path><path d="M900 600L900 537.3L842.8 558.3Z" fill="#038e61" stroke="#FFFFFF"></path><path d="M0 506.7L43.2 548.3L77.2 469.7Z" fill="#026436" stroke="#FFFFFF"></path><path d="M77.2 0L0 0L0 44.7Z" fill="#047244" stroke="#FFFFFF"></path><path d="M0 422L0 495.3L77.2 469.7Z" fill="#04875a" stroke="#FFFFFF"></path><path d="M0 495.3L0 506.7L77.2 469.7Z" fill="#029669" stroke="#FFFFFF"></path><path d="M0 600L56.2 600L43.2 548.3Z" fill="#036b3d" stroke="#FFFFFF"></path><path d="M43.2 548.3L56.2 600L114.5 600Z" fill="#048052" stroke="#FFFFFF"></path><path d="M823.8 600L900 600L842.8 558.3Z" fill="#036b3d" stroke="#FFFFFF"></path><path d="M0 506.7L0 600L43.2 548.3Z" fill="#005729" stroke="#FFFFFF"></path></g></svg>