<svg id="visual" viewBox="0 0 900 600" width="900" height="600" xmlns="http://www.w3.org/2000/svg" xmlns:xlink="http://www.w3.org/1999/xlink" version="1.1"><rect x="0" y="0" width="900" height="600" fill="#DFEEEA"></rect><path d="M0 159L21.5 172.7C43 186.3 86 213.7 128.8 225.5C171.7 237.3 214.3 233.7 257.2 218.5C300 203.3 343 176.7 385.8 167.5C428.7 158.3 471.3 166.7 514.2 178.2C557 189.7 600 204.3 642.8 219C685.7 233.7 728.3 248.3 771.2 243.5C814 238.7 857 214.3 878.5 202.2L900 190L900 601L878.5 601C857 601 814 601 771.2 601C728.3 601 685.7 601 642.8 601C600 601 557 601 514.2 601C471.3 601 428.7 601 385.8 601C343 601 300 601 257.2 601C214.3 601 171.7 601 128.8 601C86 601 43 601 21.5 601L0 601Z" fill="#a7c4bc"></path><path d="M0 236L21.5 241.3C43 246.7 86 257.3 128.8 274C171.7 290.7 214.3 313.3 257.2 316.5C300 319.7 343 303.3 385.8 288.8C428.7 274.3 471.3 261.7 514.2 268.3C557 275 600 301 642.8 317.7C685.7 334.3 728.3 341.7 771.2 331.5C814 321.3 857 293.7 878.5 279.8L900 266L900 601L878.5 601C857 601 814 601 771.2 601C728.3 601 685.7 601 642.8 601C600 601 557 601 514.2 601C471.3 601 428.7 601 385.8 601C343 601 300 601 257.2 601C214.3 601 171.7 601 128.8 601C86 601 43 601 21.5 601L0 601Z" fill="#82a79d"></path><path d="M0 282L21.5 295.3C43 308.7 86 335.3 128.8 345.8C171.7 356.3 214.3 350.7 257.2 351.5C300 352.3 343 359.7 385.8 362.7C428.7 365.7 471.3 364.3 514.2 351.5C557 338.7 600 314.3 642.8 305.7C685.7 297 728.3 304 771.2 314.5C814 325 857 339 878.5 346L900 353L900 601L878.5 601C857 601 814 601 771.2 601C728.3 601 685.7 601 642.8 601C600 601 557 601 514.2 601C471.3 601 428.7 601 385.8 601C343 601 300 601 257.2 601C214.3 601 171.7 601 128.8 601C86 601 43 601 21.5 601L0 601Z" fill="#5e8b7e"></path><path d="M0 385L21.5 389.3C43 393.7 86 402.3 128.8 396.2C171.7 390 214.3 369 257.2 363.3C300 357.7 343 367.3 385.8 380C428.7 392.7 471.3 408.3 514.2 408.7C557 409 600 394 642.8 381.7C685.7 369.3 728.3 359.7 771.2 362C814 364.3 857 378.7 878.5 385.8L900 393L900 601L878.5 601C857 601 814 601 771.2 601C728.3 601 685.7 601 642.8 601C600 601 557 601 514.2 601C471.3 601 428.7 601 385.8 601C343 601 300 601 257.2 601C214.3 601 171.7 601 128.8 601C86 601 43 601 21.5 601L0 601Z" fill="#5e8b7e"></path><path d="M0 450L21.5 458.2C43 466.3 86 482.7 128.8 492.8C171.7 503 214.3 507 257.2 500.7C300 494.3 343 477.7 385.8 468C428.7 458.3 471.3 455.7 514.2 455.7C557 455.7 600 458.3 642.8 461.2C685.7 464 728.3 467 771.2 471.5C814 476 857 482 878.5 485L900 488L900 601L878.5 601C857 601 814 601 771.2 601C728.3 601 685.7 601 642.8 601C600 601 557 601 514.2 601C471.3 601 428.7 601 385.8 601C343 601 300 601 257.2 601C214.3 601 171.7 601 128.8 601C86 601 43 601 21.5 601L0 601Z" fill="#82a79d"></path><path d="M0 496L21.5 504C43 512 86 528 128.8 528.2C171.7 528.3 214.3 512.7 257.2 512.5C300 512.3 343 527.7 385.8 532.3C428.7 537 471.3 531 514.2 531.8C557 532.7 600 540.3 642.8 542C685.7 543.7 728.3 539.3 771.2 536.3C814 533.3 857 531.7 878.5 530.8L900 530L900 601L878.5 601C857 601 814 601 771.2 601C728.3 601 685.7 601 642.8 601C600 601 557 601 514.2 601C471.3 601 428.7 601 385.8 601C343 601 300 601 257.2 601C214.3 601 171.7 601 128.8 601C86 601 43 601 21.5 601L0 601Z" fill="#a7c4bc"></path></svg>